<?xml version="1.0" encoding="UTF-8"?>
<svg id="Layer_1" data-name="Layer 1" xmlns="http://www.w3.org/2000/svg" width="1079" height="388.6173" viewBox="0 0 1079 388.6173">
  <path d="M759.7122,278.0152c-8.4607,0-19.341-4.8345-19.341-20.5477,0-27.8018,38.0764-84.0093,38.0764-125.1079,0-32.6362-21.7574-64.0642-53.1855-64.0642-42.3067,0-79.7774,50.1634-120.8759,200.655l-4.2304-1.2082c7.8566-35.6599,18.1312-80.9888,18.1312-100.9324,0-49.5592-12.0885-98.5143-45.933-98.5143-35.6583,0-73.7347,50.1634-115.4374,200.655l-4.836-1.2082c6.6484-36.8682,11.4844-67.088,11.4844-85.8233,0-81.5914-18.1328-113.6235-41.0985-113.6235-33.8452,0-56.8117,45.3289-84.0093,132.9645l12.0877,4.8345c7.8574-24.1755,24.1755-29.01,49.5593-29.01,26.5943,0,38.6797,7.8566,38.6797,17.5271,0,17.528-44.0889,65.8921-79.5381,117.8284-15.6001-28.7382-35.3281-70.8265-62.4935-129.3127C273.1815,131.1514,235.7092,51.9764,210.9296,0h-21.1534C70.7126,253.2355,29.6149,349.9368,8.4615,360.2114l-8.4615,4.2303v17.5272h174.6671v-18.1312l-14.5057-2.418c-29.01-5.4386-41.0978-24.7797-41.0978-61.0413,0-13.2968.6041-29.01,1.8132-45.933,13.2968-.6041,25.3837-.6041,40.4936-.6041,16.923,0,32.0321.6041,46.5371,1.2082,18.132,41.7026,30.8239,74.3381,30.8239,87.0308,0,15.1091-8.4615,18.7354-21.7575,19.9436l-12.6926,1.8139v18.1312h229.6696c36.2625-164.9958,77.9651-203.0723,125.7104-203.0723,21.7575,0,32.0321,7.8566,32.0321,16.923,0,29.6141-93.0742,85.8217-117.2497,186.1492h107.5792c35.6599-164.9958,76.1527-203.0723,122.6898-203.0723,22.3632,0,32.6378,7.8566,32.6378,16.923,0,32.6362-89.4495,79.1749-89.4495,134.1719,0,27.8018,25.9894,58.6257,59.2297,58.6257,39.2846,0,68.2946-32.0321,97.3062-140.8204l-10.8787-4.2303c-11.4844,29.6141-20.5493,34.4486-33.8461,34.4486ZM161.3704,240.5445c-14.505,0-26.5927,0-38.6805-.6041,4.2303-38.6805,12.0878-80.3831,25.3837-114.2292,12.0878,23.5714,32.637,67.6905,52.5814,113.6235-12.087.6057-24.7796,1.2098-39.2846,1.2098ZM1046.7753,68.2953h-211.1086c-17.7972,0-32.2252,14.4276-32.2252,32.225v107.7989c0,17.7974,14.428,32.2253,32.2252,32.2253h211.1086c17.7979,0,32.2247-14.4279,32.2247-32.2253v-107.7989c0-17.7974-14.4269-32.225-32.2247-32.225ZM930.4388,185.2989v24.7552h-76.3597v-36.1651l41.7229-24.0648c3.9053-2.128,6.7465-4.5391,8.5574-7.2329,1.8109-2.6827,2.7165-5.6936,2.7165-9.0329,0-4.3579-1.2111-7.765-3.6218-10.2326-2.4113-2.4562-5.8862-3.6787-10.4254-3.6787-4.4598,0-8.1158,1.3696-10.9911,4.0975-2.875,2.7393-4.9124,6.6558-6.1237,11.7607h-24.6193c.5548-8.3536,2.5469-15.4847,5.9879-21.4274,3.4298-5.9313,8.1837-10.425,14.251-13.4925,6.0784-3.0563,13.1871-4.5844,21.3482-4.5844,8.4442,0,15.6547,1.5054,21.6311,4.5164,5.9879,3.0222,10.595,7.3009,13.8434,12.8699,3.2375,5.5577,4.8673,12.2814,4.8673,20.1709,0,7.9688-2.1393,14.9528-6.3954,20.9294-4.2675,5.9766-10.9458,11.2853-20.0351,15.9262l-23.0915,12.1003v2.7845h46.7372ZM1026.0754,193.3582c-3.3954,6.2143-8.1611,11.0136-14.3301,14.3981-6.169,3.3844-13.3792,5.0823-21.6311,5.0823-12.9834,0-23.2047-3.3391-30.6639-10.0175-7.4706-6.6784-11.4324-16.0847-11.8967-28.2303h24.6196c1.1094,4.9127,3.1467,8.614,6.1238,11.1268,2.9656,2.5016,6.6215,3.7468,10.9796,3.7468,3.3392,0,6.169-.6906,8.4894-2.0828,2.3205-1.3923,4.0976-3.4525,5.354-6.1917,1.2563-2.728,1.8788-5.9086,1.8788-9.5196,0-3.5316-.6225-6.5424-1.8788-9.044-1.2564-2.5016-3.0109-4.4033-5.2861-5.7049-2.2752-1.3018-5.0711-1.9469-8.4104-1.9469-3.4407,0-6.4066.8149-8.9081,2.4335-2.5013,1.6187-4.3126,4.0522-5.4219,7.301h-24.4838v-65.9235h77.8992v23.9178h-51.7516v16.4128h5.5692c2.1281-1.4828,4.4936-2.6599,7.0969-3.5429,2.5925-.8828,5.4675-1.3243,8.6256-1.3243,6.6671,0,12.485,1.5507,17.4542,4.6636,4.9579,3.1014,8.8065,7.4367,11.5458,13.0058,2.7277,5.5577,4.0975,12.1456,4.0975,19.7521,0,8.2518-1.6982,15.4849-5.0713,21.6878Z" fill="#ff0"/>
</svg>