<?xml version="1.0" encoding="UTF-8"?>
<svg id="Layer_1" data-name="Layer 1" xmlns="http://www.w3.org/2000/svg" xmlns:xlink="http://www.w3.org/1999/xlink" viewBox="0 0 460 785">
  <defs>
    <style>
      .cls-1 {
        fill: #e5e0dc;
      }

      .cls-2 {
        fill: none;
      }

      .cls-3 {
        fill: #eae6e4;
      }

      .cls-4 {
        fill: #666;
        fill-rule: evenodd;
      }

      .cls-5 {
        fill: #b7b7b7;
      }

      .cls-6 {
        fill: #d8d5d4;
      }

      .cls-7 {
        clip-path: url(#clippath);
      }
    </style>
    <clipPath id="clippath">
      <rect class="cls-2" x="218.66" y="380.39" width="24.24" height="24.24"/>
    </clipPath>
  </defs>
  <rect class="cls-1" width="460" height="785" rx="1.5" ry="1.5"/>
  <g>
    <path class="cls-3" d="M230.78,478.12c-47.28,0-85.56-38.33-85.56-85.56s38.33-85.56,85.56-85.56,85.56,38.33,85.56,85.56-38.33,85.56-85.56,85.56h0Z"/>
    <g>
      <g>
        <path class="cls-5" d="M108.81,515.78c78.01-79.07,166.12-167.18,245.19-245.19-78.01,79.07-166.12,167.18-245.19,245.19h0Z"/>
        <path class="cls-5" d="M108.04,391.79c78.59-.77,166.8-.77,245.39,0-78.59.77-166.8.77-245.39,0h0Z"/>
        <path class="cls-5" d="M230.01,515.2c-.77-78.59-.77-166.8,0-245.39.77,78.59.77,166.8,0,245.39h0Z"/>
        <path class="cls-5" d="M352.89,515.78c-79.07-78.01-167.18-166.12-245.19-245.19,79.07,78.01,167.18,166.12,245.19,245.19h0Z"/>
      </g>
      <path class="cls-5" d="M230.78,478.7c-47.5,0-86.14-38.64-86.14-86.14s38.64-86.14,86.14-86.14,86.14,38.64,86.14,86.14-38.64,86.14-86.14,86.14ZM230.78,307.57c-46.86,0-84.99,38.12-84.99,84.99s38.12,84.99,84.99,84.99,84.99-38.12,84.99-84.99-38.12-84.99-84.99-84.99Z"/>
    </g>
    <path class="cls-6" d="M230.78,428.15c-19.67,0-35.59-15.92-35.59-35.59s15.92-35.59,35.59-35.59,35.59,15.92,35.59,35.59-15.92,35.59-35.59,35.59Z"/>
    <g class="cls-7">
      <path class="cls-4" d="M240.59,384.24h-19.67v10.15l2.26-2.26.34-.34h5.72l5.34-5.34h1.64l4.52,4.52v-6.69h-.05l-.1-.05ZM230.78,393.38l2.31,2.31.82.82-1.64,1.64-.82-.82-3.27-3.27h-3.8l-3.46,3.46h0v1.83c0,.82.67,1.49,1.49,1.49h16.64c.82,0,1.49-.67,1.49-1.49h0v-5.19l-5.34-5.34-4.52,4.52h0l.1.05ZM218.66,396.79v2.55c0,2.07,1.68,3.75,3.75,3.75h16.64c2.07,0,3.75-1.68,3.75-3.75h0v-4.42l.87-.87-.82-.82h0v-11.35h-24.24v14.67h0v.19h0l.05.05Z"/>
    </g>
    <path class="cls-5" d="M230.78,428.73c-19.94,0-36.17-16.22-36.17-36.17s16.23-36.17,36.17-36.17,36.17,16.23,36.17,36.17-16.22,36.17-36.17,36.17ZM230.78,357.55c-19.31,0-35.01,15.71-35.01,35.01s15.71,35.01,35.01,35.01,35.01-15.71,35.01-35.01-15.71-35.01-35.01-35.01Z"/>
  </g>
</svg>